:SAMPLES-PER-SECOND 30
:FULLY-SPECIFIED
:DEGREES
311
root  -4.12934 40.8143 -1.01565 -0.896942 -61.5183 3.05142
RightUpLeg  4.59533 -2.91616 0.49122
RightLeg  -4.50511 -44.7462 4.75922
RightFoot  -2.52218 -0.181986 2.28816
RightToes  -3.13588e-008 1.75238e-005 3.56266e-009
Spine  6.81224 11.4121 5.76727
Spine1  -7.89475 12.672 -9.77551
HEad  -4.91805 -12.6871 3.36777
LeftShoulder1  0.990882 0.162597 -23.3461
LeftArm  -45.8121 -11.4201 -22.5827
LeftForeArm  105.834 -80.3035 -96.1407
LeftHand  -0.747756 -4.571 8.98827
RightShoulder  2.76496 5.12749 26.0057
RightArm  7.25031 -10.8334 43.6338
RightForeArm  23.8518 60.9124 18.2777
RightHand  -0.541707 7.88065 -5.09532
LeftUpLeg  -3.38159 -0.736151 3.18178
LeftLeg  -1.81745 -10.4146 1.33167
LeftFoot  2.20417 0.777015 -6.65144
LeftToes  4.76812e-008 1.47286e-008 1.3089e-009
312
root  -4.05295 40.8431 -0.968563 -0.670105 -64.2579 2.76331
RightUpLeg  4.35293 -2.75815 0.446221
RightLeg  -4.40725 -42.2026 4.62936
RightFoot  -2.24731 -0.161146 1.97097
RightToes  -3.13588e-008 1.75238e-005 3.56266e-009
Spine  5.95316 11.1571 5.1134
Spine1  -7.10256 12.2941 -8.3701
HEad  -4.99214 -11.8882 3.4063
LeftShoulder1  1.13275 -0.22136 -24.1748
LeftArm  -45.5861 -12.1661 -22.1372
LeftForeArm  101.798 -80.3338 -92.407
LeftHand  -0.670526 -4.7846 7.94948
RightShoulder  2.69299 5.07193 25.3467
RightArm  6.73084 -10.752 43.1952
RightForeArm  24.1658 61.2614 18.5458
RightHand  -0.489718 7.85997 -4.65108
LeftUpLeg  -2.87101 -0.328173 3.52043
LeftLeg  -2.01669 -8.1589 1.15669
LeftFoot  2.17761 0.743911 -6.38472
LeftToes  4.76812e-008 1.47286e-008 1.3089e-009
313
root  -3.95524 40.8669 -0.917668 -0.523254 -67.3858 2.55417
RightUpLeg  4.07518 -2.44805 0.434542
RightLeg  -4.34212 -39.4673 4.31365
RightFoot  -1.8387 -0.144368 1.70862
RightToes  -3.13588e-008 1.75238e-005 3.56266e-009
Spine  6.37135 10.3502 5.53595
Spine1  -7.81316 11.5235 -9.20298
HEad  -4.99159 -11.382 4.55724
LeftShoulder1  1.16358 -0.399528 -23.5362
LeftArm  -45.1474 -12.982 -22.607
LeftForeArm  98.2488 -80.3889 -87.671
LeftHand  -0.614078 -5.29601 6.97248
RightShoulder  2.69558 4.98317 25.7235
RightArm  6.31552 -10.6136 42.4356
RightForeArm  23.836 61.4856 18.7822
RightHand  -0.523545 7.74804 -4.9827
LeftUpLeg  -2.31005 0.0653146 3.81328
LeftLeg  -2.19435 -5.49856 0.915989
LeftFoot  2.17302 0.708318 -6.08672
LeftToes  4.76812e-008 1.47286e-008 1.3089e-009
314
root  -3.85172 40.8915 -0.850136 0.281769 -70.535 1.92694
RightUpLeg  3.66832 -2.2484 0.422483
RightLeg  -4.71847 -36.5783 4.53779
RightFoot  -1.39047 -0.112178 1.19762
RightToes  -3.13588e-008 1.75238e-005 3.56266e-009
Spine  6.05265 9.31281 5.27612
Spine1  -8.16854 10.3856 -8.9671
HEad  -4.87217 -10.8098 5.0147
LeftShoulder1  1.21696 -0.611891 -23.276
LeftArm  -44.1293 -13.8343 -22.9424
LeftForeArm  95.4602 -80.3805 -84.1386
LeftHand  -0.668512 -5.0082 7.76275
RightShoulder  2.63825 4.8018 25.7198
RightArm  5.86202 -10.2323 41.8727
RightForeArm  23.5843 61.349 18.6893
RightHand  -0.503492 7.8141 -4.78527
LeftUpLeg  -2.05745 0.513582 4.20108
LeftLeg  -2.30815 -2.89592 0.668074
LeftFoot  2.12739 0.682214 -5.88459
LeftToes  4.76812e-008 1.47286e-008 1.3089e-009
315
root  -3.72893 40.9172 -0.780203 1.06879 -74.0908 1.20462
RightUpLeg  3.35806 -1.75109 0.558038
RightLeg  -5.18137 -33.7239 4.4377
RightFoot  -0.748271 -0.0988712 0.9688
RightToes  -3.13588e-008 1.75238e-005 3.56266e-009
Spine  5.81933 8.33623 4.3976
Spine1  -8.30999 9.23211 -7.73146
HEad  -5.26767 -9.44225 5.28796
LeftShoulder1  1.3392 -0.986657 -23.559
LeftArm  -43.1669 -15.0166 -23.4037
LeftForeArm  93.1214 -80.3269 -82.0418
LeftHand  -0.712621 -4.67654 8.49622
RightShoulder  2.4692 4.44519 24.9984
RightArm  5.56785 -9.93115 41.4226
RightForeArm  23.517 61.3986 18.7415
RightHand  -0.496545 7.5869 -4.79814
LeftUpLeg  -1.61928 0.896928 4.52175
LeftLeg  -2.44285 0.0964236 0.451883
LeftFoot  2.0984 0.662931 -5.73289
LeftToes  4.76812e-008 1.47286e-008 1.3089e-009
316
root  -3.61247 40.9368 -0.69782 2.00598 -76.9239 0.241089
RightUpLeg  3.20844 -1.41048 0.651508
RightLeg  -5.62186 -31.5106 4.38161
RightFoot  -0.138113 -0.109589 1.10067
RightToes  -3.13588e-008 1.75238e-005 3.56266e-009
Spine  5.44855 6.7725 2.98312
Spine1  -8.09338 7.46235 -5.90248
HEad  -5.55262 -8.45825 5.55929
LeftShoulder1  1.33862 -0.992706 -23.4943
LeftArm  -41.9484 -16.5652 -24.6761
LeftForeArm  92.0542 -80.3029 -80.7753
LeftHand  -0.831466 -4.84871 9.70898
RightShoulder  2.51528 4.6227 24.8767
RightArm  5.28345 -9.3712 40.0504
RightForeArm  22.6591 61.1897 18.6536
RightHand  -0.500686 8.11998 -4.66516
LeftUpLeg  -1.29956 1.25138 4.78772
LeftLeg  -2.36262 2.30223 0.21072
LeftFoot  2.12023 0.60321 -5.21834
LeftToes  4.76812e-008 1.47286e-008 1.3089e-009
317
root  -3.4885 40.9441 -0.610487 3.03357 -79.1218 -0.844086
RightUpLeg  3.20187 -1.33749 0.602043
RightLeg  -6.21181 -29.6496 4.5821
RightFoot  0.3898 -0.117065 1.1688
RightToes  -3.13588e-008 1.75238e-005 3.56266e-009
Spine  5.25396 5.08869 1.15317
Spine1  -7.96098 5.51504 -3.53308
HEad  -5.92073 -7.73016 5.84689
LeftShoulder1  1.48844 -1.4416 -23.8567
LeftArm  -40.6588 -18.3887 -25.6919
LeftForeArm  89.4799 -80.2287 -77.7654
LeftHand  -0.89743 -4.98833 10.3262
RightShoulder  2.4985 4.65298 24.5376
RightArm  4.67012 -9.20838 38.8046
RightForeArm  21.3516 61.1893 18.802
RightHand  -0.486954 7.73612 -4.66443
LeftUpLeg  -1.20592 1.48226 4.91271
LeftLeg  -2.01728 4.08856 0.0426327
LeftFoot  2.05295 0.53699 -4.67899
LeftToes  4.76812e-008 1.47286e-008 1.3089e-009
318
root  -3.36805 40.9531 -0.528867 4.26636 -80.7063 -1.99142
RightUpLeg  3.09442 -1.24271 0.549471
RightLeg  -6.84139 -28.2997 4.81245
RightFoot  0.867463 -0.132957 1.29846
RightToes  -3.13588e-008 1.75238e-005 3.56266e-009
Spine  5.45617 3.48469 -0.392909
Spine1  -8.2982 3.69003 -1.70707
HEad  -6.13885 -7.51557 6.32818
LeftShoulder1  1.64719 -1.98042 -23.7827
LeftArm  -38.2642 -20.4424 -27.3434
LeftForeArm  87.8224 -80.1648 -75.4162
LeftHand  -0.805394 -5.14994 9.15309
RightShoulder  2.40712 4.50553 23.932
RightArm  4.10895 -9.45912 37.7197
RightForeArm  21.0583 61.0507 18.7127
RightHand  -0.508481 7.59517 -4.89928
LeftUpLeg  -1.3652 1.65563 4.99455
LeftLeg  -1.69498 5.40807 -0.0854359
LeftFoot  2.0697 0.488242 -4.25919
LeftToes  4.76812e-008 1.47286e-008 1.3089e-009
319
root  -3.25891 40.9536 -0.443307 4.60104 -82.1528 -2.29865
RightUpLeg  2.51413 -1.19976 0.378451
RightLeg  -6.13466 -27.0912 4.26304
RightFoot  0.902834 -0.169366 1.63568
RightToes  -3.13588e-008 1.75238e-005 3.56266e-009
Spine  5.75902 2.22524 -2.02805
Spine1  -8.43431 2.20475 0.266872
HEad  -6.60208 -7.15006 6.40677
LeftShoulder1  1.80828 -2.44223 -24.1898
LeftArm  -35.7846 -22.5871 -28.6501
LeftForeArm  85.6412 -80.0584 -72.3507
LeftHand  -0.699148 -4.9036 8.18148
RightShoulder  2.28833 4.31347 23.1039
RightArm  3.45507 -9.65336 36.5405
RightForeArm  20.8134 60.832 18.5496
RightHand  -0.523244 7.62369 -5.02119
LeftUpLeg  -1.41234 1.63477 4.86143
LeftLeg  -1.45601 6.77869 -0.154124
LeftFoot  2.02878 0.451285 -3.95507
LeftToes  4.76812e-008 1.47286e-008 1.3089e-009
320
root  -3.17662 40.9619 -0.355273 6.0162 -83.5364 -3.66125
RightUpLeg  2.18357 -1.1149 0.301696
RightLeg  -6.01285 -25.8137 4.07617
RightFoot  1.16565 -0.178145 1.69751
RightToes  -3.13588e-008 1.75238e-005 3.56266e-009
Spine  5.78652 1.21936 -2.8192
Spine1  -8.01931 1.07462 1.32216
HEad  -7.02716 -7.10675 5.96995
LeftShoulder1  1.88963 -2.69232 -24.2808
LeftArm  -34.068 -23.8181 -29.6653
LeftForeArm  87.0086 -80.1282 -73.9546
LeftHand  -0.704188 -5.04469 8.12579
RightShoulder  2.13401 3.8558 22.8186
RightArm  2.99951 -8.98531 35.5506
RightForeArm  20.5317 60.6345 18.4103
RightHand  -0.488717 7.52266 -4.74741
LeftUpLeg  -1.26244 1.73382 4.87529
LeftLeg  -1.59269 7.93893 -0.286925
LeftFoot  2.00213 0.43145 -3.79245
LeftToes  4.76812e-008 1.47286e-008 1.3089e-009
